<svg width="132" height="24" viewBox="0 0 132 24" fill="none" xmlns="http://www.w3.org/2000/svg">
<path d="M18.8906 13.8438H6.04688V9.75H18.8906V13.8438ZM20.7031 4.65625H4.42188V23H0.359375V2.64062C0.359375 2.35938 0.411458 2.09375 0.515625 1.84375C0.619792 1.59375 0.760417 1.375 0.9375 1.1875C1.125 1 1.34375 0.854167 1.59375 0.75C1.84375 0.645833 2.11458 0.59375 2.40625 0.59375H20.7031V4.65625ZM45.735 21.2656C45.735 21.5573 45.6777 21.8281 45.5631 22.0781C45.459 22.3281 45.3131 22.5469 45.1256 22.7344C44.9485 22.9115 44.735 23.0521 44.485 23.1562C44.235 23.2604 43.9694 23.3125 43.6881 23.3125C43.4381 23.3125 43.1829 23.2656 42.9225 23.1719C42.6725 23.0781 42.4485 22.9271 42.2506 22.7188L27.4069 7.21875V23H23.3444V2.32812C23.3444 1.91146 23.459 1.53646 23.6881 1.20312C23.9277 0.859375 24.2298 0.604167 24.5944 0.4375C24.9798 0.28125 25.3756 0.244792 25.7819 0.328125C26.1881 0.401042 26.5371 0.588542 26.8288 0.890625L41.6725 16.375V0.59375H45.735V21.2656ZM72.1888 18.0781C72.1888 18.5781 72.1002 19.1146 71.9231 19.6875C71.7565 20.2604 71.4752 20.7917 71.0794 21.2812C70.694 21.7708 70.1888 22.1823 69.5638 22.5156C68.9388 22.8385 68.1731 23 67.2669 23H51.845C51.5533 23 51.2825 22.9479 51.0325 22.8438C50.7825 22.7396 50.5638 22.599 50.3763 22.4219C50.1992 22.2344 50.0585 22.0156 49.9544 21.7656C49.8502 21.5156 49.7981 21.2448 49.7981 20.9531V2.64062C49.7981 2.35938 49.8502 2.09375 49.9544 1.84375C50.0585 1.59375 50.1992 1.375 50.3763 1.1875C50.5638 1 50.7825 0.854167 51.0325 0.75C51.2825 0.645833 51.5533 0.59375 51.845 0.59375H65.4388C65.9388 0.59375 66.4752 0.682292 67.0481 0.859375C67.621 1.03646 68.1523 1.32292 68.6419 1.71875C69.1419 2.10417 69.5533 2.60938 69.8763 3.23438C70.2096 3.85938 70.3763 4.625 70.3763 5.53125V6.29688C70.3763 7.01562 70.2565 7.79167 70.0169 8.625C69.7773 9.44792 69.3919 10.2292 68.8606 10.9688C69.319 11.25 69.746 11.5885 70.1419 11.9844C70.5481 12.3802 70.9023 12.8385 71.2044 13.3594C71.5065 13.8802 71.746 14.4688 71.9231 15.125C72.1002 15.7812 72.1888 16.5052 72.1888 17.2969V18.0781ZM68.1263 17.2969C68.1263 16.7656 68.0429 16.2917 67.8763 15.875C67.7096 15.4479 67.4752 15.0833 67.1731 14.7812C66.871 14.4792 66.5065 14.25 66.0794 14.0938C65.6523 13.9271 65.1731 13.8438 64.6419 13.8438H55.4856V9.75H62.8138C63.345 9.75 63.8242 9.67188 64.2513 9.51562C64.6783 9.34896 65.0429 9.11458 65.345 8.8125C65.6471 8.51042 65.8763 8.15104 66.0325 7.73438C66.1992 7.30729 66.2825 6.82812 66.2825 6.29688V5.53125C66.2825 4.94792 66.0013 4.65625 65.4388 4.65625H53.8606V18.9375H67.2669C67.3398 18.9375 67.4283 18.9323 67.5325 18.9219C67.6367 18.9115 67.7304 18.8802 67.8138 18.8281C67.8971 18.776 67.97 18.6875 68.0325 18.5625C68.095 18.4375 68.1263 18.2656 68.1263 18.0469V17.2969Z" fill="#EF4036"/>
<path d="M107.19 9.96875C107.19 10.8958 107.075 11.724 106.846 12.4531C106.617 13.1823 106.305 13.8281 105.909 14.3906C105.523 14.9427 105.075 15.4167 104.565 15.8125C104.055 16.2083 103.518 16.5312 102.956 16.7812C102.404 17.0312 101.841 17.2135 101.268 17.3281C100.706 17.4427 100.174 17.5 99.6744 17.5H90.4869V13.4375H99.6744C100.195 13.3958 100.664 13.2917 101.081 13.125C101.508 12.9479 101.872 12.7135 102.174 12.4219C102.476 12.1302 102.711 11.7812 102.878 11.375C103.044 10.9583 103.128 10.4896 103.128 9.96875V8.125C103.075 7.61458 102.966 7.14583 102.799 6.71875C102.633 6.29167 102.404 5.92708 102.112 5.625C101.831 5.32292 101.487 5.08854 101.081 4.92188C100.674 4.74479 100.206 4.65625 99.6744 4.65625H90.5181C89.9765 4.65625 89.565 4.79688 89.2838 5.07812C89.0025 5.35938 88.8619 5.76562 88.8619 6.29688V23H84.7994V6.29688C84.7994 5.25521 84.9869 4.36979 85.3619 3.64062C85.7473 2.91146 86.2213 2.32292 86.7838 1.875C87.3567 1.42708 87.9765 1.10417 88.6431 0.90625C89.3098 0.697917 89.9244 0.59375 90.4869 0.59375H99.6744C100.591 0.59375 101.414 0.713542 102.143 0.953125C102.872 1.18229 103.513 1.49479 104.065 1.89062C104.628 2.27604 105.101 2.72396 105.487 3.23438C105.883 3.74479 106.206 4.28125 106.456 4.84375C106.716 5.39583 106.904 5.95833 107.018 6.53125C107.133 7.09375 107.19 7.625 107.19 8.125V9.96875ZM131.566 16.4062C131.566 17.2083 131.461 17.9323 131.253 18.5781C131.055 19.2135 130.79 19.776 130.456 20.2656C130.123 20.7552 129.732 21.1719 129.284 21.5156C128.836 21.8594 128.373 22.1406 127.894 22.3594C127.415 22.5781 126.925 22.7396 126.425 22.8438C125.935 22.9479 125.472 23 125.034 23H109.363V18.9375H125.034C125.816 18.9375 126.42 18.7083 126.847 18.25C127.284 17.7917 127.503 17.1771 127.503 16.4062C127.503 16.0312 127.446 15.6875 127.331 15.375C127.217 15.0625 127.05 14.7917 126.831 14.5625C126.623 14.3333 126.363 14.1562 126.05 14.0312C125.748 13.9062 125.409 13.8438 125.034 13.8438H115.691C115.034 13.8438 114.326 13.7292 113.566 13.5C112.805 13.2604 112.097 12.8802 111.441 12.3594C110.795 11.8385 110.253 11.1562 109.816 10.3125C109.389 9.46875 109.175 8.4375 109.175 7.21875C109.175 6 109.389 4.97396 109.816 4.14062C110.253 3.29688 110.795 2.61458 111.441 2.09375C112.097 1.5625 112.805 1.18229 113.566 0.953125C114.326 0.713542 115.034 0.59375 115.691 0.59375H129.519V4.65625H115.691C114.92 4.65625 114.316 4.89062 113.878 5.35938C113.451 5.82812 113.238 6.44792 113.238 7.21875C113.238 8 113.451 8.61979 113.878 9.07812C114.316 9.52604 114.92 9.75 115.691 9.75H125.034H125.066C125.503 9.76042 125.967 9.82292 126.456 9.9375C126.946 10.0417 127.43 10.2083 127.909 10.4375C128.399 10.6667 128.863 10.9583 129.3 11.3125C129.738 11.6562 130.123 12.0729 130.456 12.5625C130.8 13.0521 131.071 13.6146 131.269 14.25C131.467 14.8854 131.566 15.6042 131.566 16.4062Z" fill="#333333"/>
</svg>
