<svg width="262" height="48" viewBox="0 0 262 48" fill="none" xmlns="http://www.w3.org/2000/svg">
<path d="M39.0869 28.1152H12.5967V19.6719H39.0869V28.1152ZM42.8252 9.16602H9.24512V47H0.866211V5.00879C0.866211 4.42871 0.973633 3.88086 1.18848 3.36523C1.40332 2.84961 1.69336 2.39844 2.05859 2.01172C2.44531 1.625 2.89648 1.32422 3.41211 1.10938C3.92773 0.894531 4.48633 0.787109 5.08789 0.787109H42.8252V9.16602ZM92.4734 43.4229C92.4734 44.0244 92.3553 44.583 92.1189 45.0986C91.9041 45.6143 91.6033 46.0654 91.2166 46.4521C90.8514 46.8174 90.4109 47.1074 89.8953 47.3223C89.3797 47.5371 88.8318 47.6445 88.2518 47.6445C87.7361 47.6445 87.2098 47.5479 86.6727 47.3545C86.157 47.1611 85.6951 46.8496 85.2869 46.4199L54.6717 14.4512V47H46.2928V4.36426C46.2928 3.50488 46.5291 2.73145 47.0018 2.04395C47.4959 1.33496 48.1189 0.808594 48.8709 0.464844C49.6658 0.142578 50.4822 0.0673828 51.3201 0.239258C52.158 0.389648 52.8777 0.776367 53.4793 1.39941L84.0945 33.3359V0.787109H92.4734V43.4229ZM145.054 36.8486C145.054 37.8799 144.872 38.9863 144.506 40.168C144.163 41.3496 143.583 42.4453 142.766 43.4551C141.971 44.4648 140.929 45.3135 139.64 46.001C138.351 46.667 136.772 47 134.903 47H103.095C102.494 47 101.935 46.8926 101.42 46.6777C100.904 46.4629 100.453 46.1729 100.066 45.8076C99.7008 45.4209 99.4107 44.9697 99.1959 44.4541C98.9811 43.9385 98.8736 43.3799 98.8736 42.7783V5.00879C98.8736 4.42871 98.9811 3.88086 99.1959 3.36523C99.4107 2.84961 99.7008 2.39844 100.066 2.01172C100.453 1.625 100.904 1.32422 101.42 1.10938C101.935 0.894531 102.494 0.787109 103.095 0.787109H131.132C132.164 0.787109 133.27 0.969727 134.452 1.33496C135.633 1.7002 136.729 2.29102 137.739 3.10742C138.77 3.90234 139.619 4.94434 140.285 6.2334C140.972 7.52246 141.316 9.10156 141.316 10.9707V12.5498C141.316 14.0322 141.069 15.6328 140.575 17.3516C140.081 19.0488 139.286 20.6602 138.19 22.1855C139.135 22.7656 140.016 23.4639 140.833 24.2803C141.671 25.0967 142.401 26.042 143.024 27.1162C143.647 28.1904 144.141 29.4043 144.506 30.7578C144.872 32.1113 145.054 33.6045 145.054 35.2373V36.8486ZM136.675 35.2373C136.675 34.1416 136.504 33.1641 136.16 32.3047C135.816 31.4238 135.333 30.6719 134.71 30.0488C134.087 29.4258 133.335 28.9531 132.454 28.6309C131.573 28.2871 130.585 28.1152 129.489 28.1152H110.604V19.6719H125.718C126.814 19.6719 127.802 19.5107 128.683 19.1885C129.564 18.8447 130.316 18.3613 130.939 17.7383C131.562 17.1152 132.035 16.374 132.357 15.5146C132.701 14.6338 132.873 13.6455 132.873 12.5498V10.9707C132.873 9.76758 132.293 9.16602 131.132 9.16602H107.253V38.6211H134.903C135.053 38.6211 135.236 38.6104 135.451 38.5889C135.666 38.5674 135.859 38.5029 136.031 38.3955C136.203 38.2881 136.353 38.1055 136.482 37.8477C136.611 37.5898 136.675 37.2354 136.675 36.7842V35.2373Z" fill="#EF4036"/>
<path d="M213.284 20.123C213.284 22.0352 213.048 23.7432 212.575 25.2471C212.103 26.751 211.458 28.083 210.642 29.2432C209.847 30.3818 208.923 31.3594 207.87 32.1758C206.818 32.9922 205.711 33.6582 204.551 34.1738C203.412 34.6895 202.252 35.0654 201.071 35.3018C199.91 35.5381 198.815 35.6562 197.783 35.6562H178.834V27.2773H197.783C198.858 27.1914 199.824 26.9766 200.684 26.6328C201.565 26.2676 202.317 25.7842 202.94 25.1826C203.563 24.5811 204.046 23.8613 204.39 23.0234C204.734 22.1641 204.905 21.1973 204.905 20.123V16.3203C204.798 15.2676 204.572 14.3008 204.229 13.4199C203.885 12.5391 203.412 11.7871 202.811 11.1641C202.231 10.541 201.522 10.0576 200.684 9.71387C199.846 9.34863 198.879 9.16602 197.783 9.16602H178.899C177.781 9.16602 176.933 9.45605 176.353 10.0361C175.773 10.6162 175.483 11.4541 175.483 12.5498V47H167.104V12.5498C167.104 10.4014 167.49 8.5752 168.264 7.07129C169.059 5.56738 170.036 4.35352 171.196 3.42969C172.378 2.50586 173.656 1.83984 175.031 1.43164C176.406 1.00195 177.674 0.787109 178.834 0.787109H197.783C199.674 0.787109 201.371 1.03418 202.875 1.52832C204.379 2.00098 205.7 2.64551 206.839 3.46191C207.999 4.25684 208.977 5.18066 209.772 6.2334C210.588 7.28613 211.254 8.39258 211.77 9.55273C212.307 10.6914 212.694 11.8516 212.93 13.0332C213.166 14.1934 213.284 15.2891 213.284 16.3203V20.123ZM261.579 33.4004C261.579 35.0547 261.364 36.5479 260.935 37.8799C260.526 39.1904 259.979 40.3506 259.291 41.3604C258.604 42.3701 257.798 43.2295 256.874 43.9385C255.95 44.6475 254.994 45.2275 254.006 45.6787C253.018 46.1299 252.008 46.4629 250.977 46.6777C249.967 46.8926 249.011 47 248.108 47H215.785V38.6211H248.108C249.72 38.6211 250.966 38.1484 251.847 37.2031C252.749 36.2578 253.2 34.9902 253.2 33.4004C253.2 32.627 253.082 31.918 252.846 31.2734C252.609 30.6289 252.266 30.0703 251.814 29.5977C251.385 29.125 250.848 28.7598 250.203 28.502C249.58 28.2441 248.882 28.1152 248.108 28.1152H228.837C227.483 28.1152 226.022 27.8789 224.454 27.4062C222.886 26.9121 221.425 26.1279 220.071 25.0537C218.739 23.9795 217.622 22.5723 216.72 20.832C215.839 19.0918 215.398 16.9648 215.398 14.4512C215.398 11.9375 215.839 9.82129 216.72 8.10254C217.622 6.3623 218.739 4.95508 220.071 3.88086C221.425 2.78516 222.886 2.00098 224.454 1.52832C226.022 1.03418 227.483 0.787109 228.837 0.787109H257.357V9.16602H228.837C227.247 9.16602 226.001 9.64941 225.099 10.6162C224.218 11.583 223.777 12.8613 223.777 14.4512C223.777 16.0625 224.218 17.3408 225.099 18.2861C226.001 19.21 227.247 19.6719 228.837 19.6719H248.108H248.173C249.075 19.6934 250.031 19.8223 251.041 20.0586C252.051 20.2734 253.05 20.6172 254.038 21.0898C255.048 21.5625 256.004 22.1641 256.906 22.8945C257.809 23.6035 258.604 24.4629 259.291 25.4727C260 26.4824 260.559 27.6426 260.967 28.9531C261.375 30.2637 261.579 31.7461 261.579 33.4004Z" fill="white"/>
</svg>
