<svg width="16" height="16" viewBox="0 0 16 16" fill="none" xmlns="http://www.w3.org/2000/svg">
<path d="M0.842105 14.8093L3.86189 11.7895H13.4737C13.9204 11.7895 14.3488 11.612 14.6646 11.2962C14.9805 10.9803 15.1579 10.5519 15.1579 10.1053V2.52632C15.1579 2.07964 14.9805 1.65125 14.6646 1.3354C14.3488 1.01955 13.9204 0.842105 13.4737 0.842105H2.52632C2.07964 0.842105 1.65125 1.01955 1.3354 1.3354C1.01955 1.65125 0.842105 2.07964 0.842105 2.52632V14.8093ZM0.842105 16H0V2.52632C0 1.8563 0.266165 1.21372 0.739941 0.739941C1.21372 0.266165 1.8563 0 2.52632 0H13.4737C14.1437 0 14.7863 0.266165 15.2601 0.739941C15.7338 1.21372 16 1.8563 16 2.52632V10.1053C16 10.7753 15.7338 11.4179 15.2601 11.8916C14.7863 12.3654 14.1437 12.6316 13.4737 12.6316H4.21053L0.842105 16ZM3.36842 3.36842H12.6316V4.21053H3.36842V3.36842ZM3.36842 5.89474H12.6316V6.73684H3.36842V5.89474ZM3.36842 8.42105H10.1053V9.26316H3.36842V8.42105Z" fill="#EF4036"/>
</svg>
